{"title":"Rise Of The Guardians 2012 300MB BrRip - the.HH.mp4","uid":8213779,"size":313972894,"categoryP":"video","categoryS":"handheld","magnet":"?xt=urn:btih:7f03ce583c4cc46b4598fdefe1cb4b0777592587&amp;dn=Rise+Of+The+Guardians+2012+300MB+BrRip+-+the.HH.mp4&amp;tr=udp%3A%2F%2Ftracker.openbittorrent.com%3A80&amp;tr=udp%3A%2F%2Fopen.demonii.com%3A1337&amp;tr=udp%3A%2F%2Ftracker.coppersurfer.tk%3A6969&amp;tr=udp%3A%2F%2Fexodus.desync.com%3A6969","seeders":0,"leechers":1,"uploader":"the.HH","files":1,"time":1362297883,"description":"\n0\n \n0\nRise Of The Guardians 2012 300MB BrRip - the.HH\nseeders: 2leechers: 7\nDOWNLOAD TORRENT\nAdded on Mar 3, 2013 by  the.HH284 in Movies &gt; Highres Movies\t\nDownloaded once.\nMAIN\n \nTECHNICAL\n \nTRAILER\n \nCOMMENTS\nadd to bookmarks add to rss subscribe to Rise of the Guardians\n\nBookmarks: add movie to bookmarks\nIMDB link: 1446192\nlink: Rise of the Guardians\nDetected quality: x264\nGenres: Animation, Adventure\n \nMovie: Rise of the Guardians\nRelease date: 21 November 2012\nLanguage: English\nSubtitles: \nCast: Jude Law, Alec Baldwin, Isla Fisher, Hugh Jackman, Chris Pine, Dakota Goyo and others\nAvailable in versions:\n1080P\n720P\nBLU-RAY\nBDRIP\nHDRIP\nDVD\nDVDRIP\nX264\nSCREENER\nTELESYNC\nCAM\nRise Of The Guardians 2012 300MB BrRip - the.HH (Size: 299.43 MB)\n \t\tRise Of The Guardians 2012 300MB BrRip - the.HH.mp4\t299.43 MB\nDescription\nwww.imdb.com/title/tt1446192/\nGeneral\nComplete name : F:moviesRise Of The Guardians 2012 300MB BrRip - the.HH.mp4\nFormat : MPEG-4\nFormat profile : Base Media\nCodec ID : isom\nFile size : 299 MiB\nDuration : 1h 37mn\nOverall bit rate mode : Variable\nOverall bit rate : 431 Kbps\n\n\nVideo\nID : 1\nFormat : AVC\nFormat/Info : Advanced Video Codec\nFormat profile : &lt;a class=&quot;__cf_email__&quot; href=&quot;/cdn-cgi/l/email-protection&quot; data-cfemail=&quot;d991b0beb19995eaf7e9&quot;&gt;[email&amp;#160;protected]&lt;/a&gt;&lt;script cf-hash='f9e31' type=&quot;text/javascript&quot;&gt;\n/* &lt;![CDATA[ */!function(){try{var t=&quot;currentScript&quot;in document?document.currentScript:function(){for(var t=document.getElementsByTagName(&quot;script&quot;),e=t.length;e--;)if(t[e].getAttribute(&quot;cf-hash&quot;))return t[e]}();if(t&amp;&amp;t.previousSibling){var e,r,n,i,c=t.previousSibling,a=c.getAttribute(&quot;data-cfemail&quot;);if(a){for(e=&quot;&quot;,r=parseInt(a.substr(0,2),16),n=2;a.length-n;n+=2)i=parseInt(a.substr(n,2),16)^r,e+=String.fromCharCode(i);e=document.createTextNode(e),c.parentNode.replaceChild(e,c)}}}catch(u){}}();/* ]]&gt; */&lt;/script&gt;\nFormat settings, CABAC : Yes\nFormat settings, ReFrames : 4 frames\nCodec ID : avc1\nCodec ID/Info : Advanced Video Coding\nDuration : 1h 37mn\nBit rate : 364 Kbps\nMaximum bit rate : 1 953 Kbps\nWidth : 720 pixels\nHeight : 400 pixels\nDisplay aspect ratio : 16:9\nFrame rate mode : Constant\nFrame rate : 23.976 fps\nColor space : YUV\nChroma subsampling : 4:2:0\nBit depth : 8 bits\nScan type : Progressive\nBits/(Pixel*Frame) : 0.053\nStream size : 253 MiB (84%)\n\nAudio\nID : 2\nFormat : AAC\nFormat/Info : Advanced Audio Codec\nFormat profile : HE-AAC / LC\nCodec ID : 40\nDuration : 1h 37mn\nBit rate mode : Variable\nBit rate : 63.8 Kbps\nMaximum bit rate : 118 Kbps\nChannel(s) : 2 channels\nChannel positions : Front: L R\nSampling rate : 48.0 KHz / 24.0 KHz\nCompression mode : Lossy\nStream size : 44.4 MiB (15%)\nLanguage : English","torrent":{"xt":"urn:btih:7f03ce583c4cc46b4598fdefe1cb4b0777592587","amp;dn":"Rise+Of+The+Guardians+2012+300MB+BrRip+-+the.HH.mp4","amp;tr":["udp%3A%2F%2Ftracker.openbittorrent.com%3A80","udp%3A%2F%2Fopen.demonii.com%3A1337","udp%3A%2F%2Ftracker.coppersurfer.tk%3A6969","udp%3A%2F%2Fexodus.desync.com%3A6969"],"infoHash":"7f03ce583c4cc46b4598fdefe1cb4b0777592587","infoHashBuffer":{"type":"Buffer","data":[127,3,206,88,60,76,196,107,69,152,253,239,225,203,75,7,119,89,37,135]},"announce":[],"urlList":[]}}